# xmcd CD database file
#
# Track frame offsets:
#	150
#	18805
#	44520
#	55402
#
# Disc length: 1162 seconds
#
# Revision: 4
# Processed by: cddbd v1.4PL0 Copyright (c) Steve Scherf et al.
# Submitted via: CDex 1.51
#
DISCID=2c048804
DTITLE=Just Friends - The present that I want (Maxi CD)
DYEAR=1995
DGENRE=Pop
TTITLE0=The present that I want (Single Mix)
TTITLE1=The present that I want (Original TV Mix)
TTITLE2=The present that I want (Acoustic Mix)
TTITLE3=Wer-Wie-Was!?
EXTD=YEAR: 1995
EXTT0=
EXTT1=
EXTT2=
EXTT3=
PLAYORDER=
